<?xml version="1.0" standalone="no"?>
<!DOCTYPE svg PUBLIC "-//W3C//DTD SVG 20010904//EN"
 "http://www.w3.org/TR/2001/REC-SVG-20010904/DTD/svg10.dtd">
<svg version="1.0" xmlns="http://www.w3.org/2000/svg"
 width="512.000000pt" height="512.000000pt" viewBox="0 0 512.000000 512.000000"
 preserveAspectRatio="xMidYMid meet">
<metadata>
Created by potrace 1.14, written by Peter Selinger 2001-2017
</metadata>
<g transform="translate(0.000000,512.000000) scale(0.100000,-0.100000)"
fill="#000000" stroke="none">
<path d="M4540 5088 c-14 -6 -42 -17 -63 -26 -21 -9 -82 -58 -135 -109 l-97
-93 318 -318 317 -317 91 94 c116 119 143 173 144 286 0 119 -27 170 -168 312
-138 140 -198 175 -310 178 -39 1 -83 -2 -97 -7z"/>
<path d="M573 4838 c-123 -18 -266 -86 -354 -170 -95 -90 -147 -172 -191 -304
l-23 -69 0 -1860 c0 -1785 1 -1863 19 -1930 62 -233 245 -413 484 -477 76 -20
94 -20 2042 -21 2205 0 2024 -6 2190 75 124 62 231 170 293 299 75 155 75 150
76 874 1 606 0 642 -18 675 -50 95 -187 95 -236 -1 -13 -24 -16 -125 -18 -681
l-2 -653 -24 -58 c-46 -115 -146 -209 -261 -244 -51 -15 -208 -17 -1970 -18
-1053 0 -1940 3 -1970 7 -107 16 -219 89 -276 180 -13 20 -32 64 -44 97 -20
60 -20 76 -20 1875 0 1308 3 1823 11 1843 69 172 175 268 321 291 32 5 336 9
677 9 696 0 661 -3 700 76 33 66 11 141 -53 175 -28 15 -92 16 -666 17 -349 0
-659 -3 -687 -7z"/>
<path d="M3076 3689 l-979 -980 304 -305 c167 -167 311 -309 319 -314 12 -6
230 206 993 969 l977 977 -313 312 c-171 171 -314 313 -317 316 -3 2 -446
-437 -984 -975z"/>
<path d="M1965 2439 c-2 -8 -9 -32 -14 -54 -5 -22 -32 -123 -61 -225 -97 -348
-109 -394 -106 -397 3 -3 35 6 418 113 109 30 207 57 218 59 60 12 59 14 -183
256 -273 274 -265 266 -272 248z"/>
</g>
</svg>
